<svg width="44" height="44" viewBox="0 0 44 44" fill="none" xmlns="http://www.w3.org/2000/svg">
<g clip-path="url(#clip0_28_2515)">
<path d="M11.5 19.6667C11.5 20.7391 11.7112 21.8011 12.1217 22.7919C12.5321 23.7827 13.1336 24.683 13.892 25.4414C14.6503 26.1997 15.5506 26.8013 16.5414 27.2117C17.5322 27.6221 18.5942 27.8333 19.6667 27.8333C20.7391 27.8333 21.8011 27.6221 22.7919 27.2117C23.7827 26.8013 24.683 26.1997 25.4414 25.4414C26.1997 24.683 26.8013 23.7827 27.2117 22.7919C27.6221 21.8011 27.8333 20.7391 27.8333 19.6667C27.8333 18.5942 27.6221 17.5322 27.2117 16.5414C26.8013 15.5506 26.1997 14.6503 25.4414 13.892C24.683 13.1336 23.7827 12.5321 22.7919 12.1217C21.8011 11.7112 20.7391 11.5 19.6667 11.5C18.5942 11.5 17.5322 11.7112 16.5414 12.1217C15.5506 12.5321 14.6503 13.1336 13.892 13.892C13.1336 14.6503 12.5321 15.5506 12.1217 16.5414C11.7112 17.5322 11.5 18.5942 11.5 19.6667Z" stroke="black" stroke-width="1.5" stroke-linecap="round" stroke-linejoin="round"/>
<path d="M32.5 32.5L25.5 25.5" stroke="black" stroke-width="1.5" stroke-linecap="round" stroke-linejoin="round"/>
</g>
<defs>
<clipPath id="clip0_28_2515">
<rect width="28" height="28" fill="white" transform="translate(8 8)"/>
</clipPath>
</defs>
</svg>
